<svg width="234" height="312" viewBox="0 0 234 312" fill="none" xmlns="http://www.w3.org/2000/svg">
<rect x="12.1" y="6.1" width="210.8" height="289.8" stroke="white" stroke-opacity="0.33" stroke-width="0.2"/>
<path d="M1 0H234V312H1V0Z" fill="#CDCDCD" fill-opacity="0.08"/>
<rect width="8" height="1" transform="matrix(-1 0 0 1 223 6)" fill="#D9D9D9"/>
<rect x="12" y="6" width="8" height="1" fill="#D9D9D9"/>
<rect x="12" y="14" width="8" height="1" transform="rotate(-90 12 14)" fill="#D9D9D9"/>
<rect x="223" y="296" width="8" height="1" transform="rotate(180 223 296)" fill="#D9D9D9"/>
<rect x="223" y="288" width="8" height="1" transform="rotate(90 223 288)" fill="#D9D9D9"/>
<rect width="8" height="1" transform="matrix(1 0 0 -1 12 296)" fill="#D9D9D9"/>
<rect width="8" height="1" transform="matrix(-4.37114e-08 1 1 4.37114e-08 12 288)" fill="#D9D9D9"/>
<rect width="8" height="1" transform="matrix(4.37114e-08 -1 -1 -4.37114e-08 223 14)" fill="#D9D9D9"/>
<rect y="168" width="234" height="144" fill="url(#paint0_linear_1_866)" fill-opacity="0.2"/>
<g filter="url(#filter0_f_1_866)">
<path d="M164.86 75.0891C156.105 71.0075 146.625 68.045 136.75 66.3333C136.663 66.3305 136.577 66.3468 136.497 66.3809C136.418 66.415 136.347 66.4662 136.289 66.5308C135.104 68.7033 133.721 71.5341 132.8 73.7066C122.326 72.1266 111.674 72.1266 101.2 73.7066C100.278 71.4683 98.8955 68.7033 97.6446 66.5308C97.5788 66.3991 97.3813 66.3333 97.1838 66.3333C87.3088 68.045 77.8946 71.0075 69.073 75.0891C69.0071 75.0891 68.9413 75.155 68.8755 75.2208C50.9688 102.015 46.0313 128.085 48.4671 153.892C48.4671 154.023 48.533 154.155 48.6646 154.221C60.5146 162.911 71.9038 168.177 83.1613 171.667C83.3588 171.732 83.5563 171.667 83.6221 171.535C86.2555 167.914 88.6255 164.096 90.6663 160.08C90.798 159.817 90.6663 159.553 90.403 159.487C86.6505 158.039 83.0955 156.327 79.6063 154.352C79.343 154.221 79.343 153.826 79.5405 153.628C80.2646 153.102 80.9888 152.509 81.713 151.982C81.8446 151.851 82.0421 151.851 82.1738 151.917C104.82 162.252 129.245 162.252 151.628 151.917C151.76 151.851 151.957 151.851 152.089 151.982C152.813 152.575 153.537 153.102 154.261 153.694C154.525 153.892 154.525 154.287 154.195 154.418C150.772 156.459 147.151 158.105 143.399 159.553C143.135 159.619 143.07 159.948 143.135 160.146C145.242 164.162 147.612 167.98 150.18 171.601C150.377 171.667 150.575 171.732 150.772 171.667C162.095 168.177 173.485 162.911 185.335 154.221C185.466 154.155 185.532 154.023 185.532 153.892C188.429 124.069 180.726 98.1966 165.124 75.2208C165.058 75.155 164.992 75.0891 164.86 75.0891ZM94.0896 138.157C87.3088 138.157 81.6471 131.903 81.6471 124.201C81.6471 116.498 87.1771 110.244 94.0896 110.244C101.068 110.244 106.598 116.564 106.532 124.201C106.532 131.903 101.002 138.157 94.0896 138.157ZM139.975 138.157C133.195 138.157 127.533 131.903 127.533 124.201C127.533 116.498 133.063 110.244 139.975 110.244C146.954 110.244 152.484 116.564 152.418 124.201C152.418 131.903 146.954 138.157 139.975 138.157Z" fill="white"/>
</g>
<path d="M164.86 75.0891C156.105 71.0075 146.625 68.045 136.75 66.3333C136.663 66.3305 136.577 66.3468 136.497 66.3809C136.418 66.415 136.347 66.4662 136.289 66.5308C135.104 68.7033 133.721 71.5341 132.8 73.7066C122.326 72.1266 111.674 72.1266 101.2 73.7066C100.278 71.4683 98.8955 68.7033 97.6446 66.5308C97.5788 66.3991 97.3813 66.3333 97.1838 66.3333C87.3088 68.045 77.8946 71.0075 69.073 75.0891C69.0071 75.0891 68.9413 75.155 68.8755 75.2208C50.9688 102.015 46.0313 128.085 48.4671 153.892C48.4671 154.023 48.533 154.155 48.6646 154.221C60.5146 162.911 71.9038 168.177 83.1613 171.667C83.3588 171.732 83.5563 171.667 83.6221 171.535C86.2555 167.914 88.6255 164.096 90.6663 160.08C90.798 159.817 90.6663 159.553 90.403 159.487C86.6505 158.039 83.0955 156.327 79.6063 154.352C79.343 154.221 79.343 153.826 79.5405 153.628C80.2646 153.102 80.9888 152.509 81.713 151.982C81.8446 151.851 82.0421 151.851 82.1738 151.917C104.82 162.252 129.245 162.252 151.628 151.917C151.76 151.851 151.957 151.851 152.089 151.982C152.813 152.575 153.537 153.102 154.261 153.694C154.525 153.892 154.525 154.287 154.195 154.418C150.772 156.459 147.151 158.105 143.399 159.553C143.135 159.619 143.07 159.948 143.135 160.146C145.242 164.162 147.612 167.98 150.18 171.601C150.377 171.667 150.575 171.732 150.772 171.667C162.095 168.177 173.485 162.911 185.335 154.221C185.466 154.155 185.532 154.023 185.532 153.892C188.429 124.069 180.726 98.1966 165.124 75.2208C165.058 75.155 164.992 75.0891 164.86 75.0891ZM94.0896 138.157C87.3088 138.157 81.6471 131.903 81.6471 124.201C81.6471 116.498 87.1771 110.244 94.0896 110.244C101.068 110.244 106.598 116.564 106.532 124.201C106.532 131.903 101.002 138.157 94.0896 138.157ZM139.975 138.157C133.195 138.157 127.533 131.903 127.533 124.201C127.533 116.498 133.063 110.244 139.975 110.244C146.954 110.244 152.484 116.564 152.418 124.201C152.418 131.903 146.954 138.157 139.975 138.157Z" fill="white"/>
<defs>
<filter id="filter0_f_1_866" x="43.2867" y="61.733" width="147.446" height="114.561" filterUnits="userSpaceOnUse" color-interpolation-filters="sRGB">
<feFlood flood-opacity="0" result="BackgroundImageFix"/>
<feBlend mode="normal" in="SourceGraphic" in2="BackgroundImageFix" result="shape"/>
<feGaussianBlur stdDeviation="2.3" result="effect1_foregroundBlur_1_866"/>
</filter>
<linearGradient id="paint0_linear_1_866" x1="117" y1="194.761" x2="117" y2="392" gradientUnits="userSpaceOnUse">
<stop stop-color="#D9D9D9" stop-opacity="0"/>
<stop offset="1" stop-color="#FFEA31"/>
</linearGradient>
</defs>
</svg>
