<svg width="235" height="312" viewBox="0 0 235 312" fill="none" xmlns="http://www.w3.org/2000/svg">
<rect x="11.1" y="11.1" width="210.8" height="289.8" stroke="white" stroke-opacity="0.33" stroke-width="0.2"/>
<rect width="233" height="312" fill="#CDCDCD" fill-opacity="0.08"/>
<rect width="8" height="1" transform="matrix(-1 0 0 1 222 6)" fill="#D9D9D9"/>
<rect x="11" y="6" width="8" height="1" fill="#D9D9D9"/>
<rect x="11" y="14" width="8" height="1" transform="rotate(-90 11 14)" fill="#D9D9D9"/>
<rect x="222" y="301" width="8" height="1" transform="rotate(180 222 301)" fill="#D9D9D9"/>
<rect x="222" y="293" width="8" height="1" transform="rotate(90 222 293)" fill="#D9D9D9"/>
<rect width="8" height="1" transform="matrix(1 0 0 -1 11 301)" fill="#D9D9D9"/>
<rect width="8" height="1" transform="matrix(-4.37114e-08 1 1 4.37114e-08 11 293)" fill="#D9D9D9"/>
<rect width="8" height="1" transform="matrix(4.37114e-08 -1 -1 -4.37114e-08 222 14)" fill="#D9D9D9"/>
<rect x="1" y="168" width="234" height="144" fill="url(#paint0_linear_1_883)" fill-opacity="0.2"/>
<g filter="url(#filter0_f_1_883)">
<path d="M141.612 53L116.45 82.1101L134.657 72.4069L135.937 71.7222L137.216 72.4156L142.496 75.2808L141.613 53H141.612ZM80.6491 59.8567L87.6761 97.4537L113.252 83.8221L80.6491 59.8567ZM135.918 77.849L67.2527 114.445L98.6216 131.05L167.081 94.7955L135.918 77.849ZM148.243 90.7321L155.621 94.4888L98.7386 124.455L79.4594 114.166L86.7657 110.301L98.7389 116.698L148.244 90.7324L148.243 90.7321ZM174.82 95.9851L177.441 102.913L185 96.3812L174.82 95.9848L174.82 95.9851ZM170.27 99.2011L100.73 136.032L99.0632 160.069L177.495 118.319L170.27 99.2011ZM73.8199 104.841L48 111.814L58.6309 117.455L60.3874 112.761L60.7478 111.805L61.649 111.328L73.8205 104.841L73.8199 104.841ZM63.8918 118.77L55.5857 140.97L93.5947 161.196L95.3691 135.429L63.8916 118.77L63.8918 118.77ZM160.567 133.438L110.333 160.178L126.162 190L137.063 149.672L178.135 157.348L160.567 133.436L160.567 133.438ZM73.8744 156.809L68.2706 169.728L84.7388 162.583L73.8738 156.808L73.8744 156.809Z" fill="white"/>
</g>
<path d="M141.612 53L116.45 82.1101L134.657 72.4069L135.937 71.7222L137.216 72.4156L142.496 75.2808L141.613 53H141.612ZM80.6491 59.8567L87.6761 97.4537L113.252 83.8221L80.6491 59.8567ZM135.918 77.849L67.2527 114.445L98.6216 131.05L167.081 94.7955L135.918 77.849ZM148.243 90.7321L155.621 94.4888L98.7386 124.455L79.4594 114.166L86.7657 110.301L98.7389 116.698L148.244 90.7324L148.243 90.7321ZM174.82 95.9851L177.441 102.913L185 96.3812L174.82 95.9848L174.82 95.9851ZM170.27 99.2011L100.73 136.032L99.0632 160.069L177.495 118.319L170.27 99.2011ZM73.8199 104.841L48 111.814L58.6309 117.455L60.3874 112.761L60.7478 111.805L61.649 111.328L73.8205 104.841L73.8199 104.841ZM63.8918 118.77L55.5857 140.97L93.5947 161.196L95.3691 135.429L63.8916 118.77L63.8918 118.77ZM160.567 133.438L110.333 160.178L126.162 190L137.063 149.672L178.135 157.348L160.567 133.436L160.567 133.438ZM73.8744 156.809L68.2706 169.728L84.7388 162.583L73.8738 156.808L73.8744 156.809Z" fill="white"/>
<defs>
<filter id="filter0_f_1_883" x="44" y="49" width="145" height="145" filterUnits="userSpaceOnUse" color-interpolation-filters="sRGB">
<feFlood flood-opacity="0" result="BackgroundImageFix"/>
<feBlend mode="normal" in="SourceGraphic" in2="BackgroundImageFix" result="shape"/>
<feGaussianBlur stdDeviation="2" result="effect1_foregroundBlur_1_883"/>
</filter>
<linearGradient id="paint0_linear_1_883" x1="118" y1="194.761" x2="118" y2="392" gradientUnits="userSpaceOnUse">
<stop stop-color="#D9D9D9" stop-opacity="0"/>
<stop offset="1" stop-color="#FFEA31"/>
</linearGradient>
</defs>
</svg>
