<svg width="234" height="312" viewBox="0 0 234 312" fill="none" xmlns="http://www.w3.org/2000/svg">
<rect y="168" width="234" height="144" fill="url(#paint0_linear_1_848)" fill-opacity="0.2"/>
<rect x="10.1" y="6.1" width="210.8" height="289.8" stroke="white" stroke-opacity="0.33" stroke-width="0.2"/>
<rect width="234" height="312" fill="#CDCDCD" fill-opacity="0.08"/>
<rect width="8" height="1" transform="matrix(-1 0 0 1 221 6)" fill="#D9D9D9"/>
<rect x="10" y="6" width="8" height="1" fill="#D9D9D9"/>
<rect x="10" y="14" width="8" height="1" transform="rotate(-90 10 14)" fill="#D9D9D9"/>
<rect x="221" y="296" width="8" height="1" transform="rotate(180 221 296)" fill="#D9D9D9"/>
<rect x="221" y="288" width="8" height="1" transform="rotate(90 221 288)" fill="#D9D9D9"/>
<rect width="8" height="1" transform="matrix(1 0 0 -1 10 296)" fill="#D9D9D9"/>
<rect width="8" height="1" transform="matrix(-4.37114e-08 1 1 4.37114e-08 10 288)" fill="#D9D9D9"/>
<rect width="8" height="1" transform="matrix(4.37114e-08 -1 -1 -4.37114e-08 221 14)" fill="#D9D9D9"/>
<path d="M41.857 241.154C41.857 241.44 41.7877 241.687 41.649 241.895C41.545 242.034 41.389 242.207 41.181 242.415C40.9817 242.623 40.8214 242.762 40.7 242.831C40.4487 242.987 40.18 243.065 39.894 243.065H37.918C37.632 243.065 37.3634 242.987 37.112 242.831C36.9907 242.762 36.8217 242.623 36.605 242.415C36.397 242.198 36.2497 242.025 36.163 241.895C36.0244 241.687 35.955 241.44 35.955 241.154V237.085C35.955 236.799 36.0244 236.552 36.163 236.344C36.2497 236.214 36.397 236.045 36.605 235.837C36.8217 235.62 36.9907 235.477 37.112 235.408C37.3634 235.252 37.632 235.174 37.918 235.174H39.894C40.18 235.174 40.4487 235.252 40.7 235.408C40.8214 235.477 40.9817 235.616 41.181 235.824C41.389 236.032 41.545 236.205 41.649 236.344C41.7877 236.552 41.857 236.799 41.857 237.085V241.154ZM37.32 237.124V241.141C37.32 241.167 37.3244 241.184 37.333 241.193C37.5064 241.453 37.697 241.639 37.905 241.752C37.9224 241.761 37.944 241.765 37.97 241.765H39.842C39.868 241.765 39.8897 241.761 39.907 241.752C40.115 241.639 40.3057 241.453 40.479 241.193L40.492 241.141V237.124C40.492 237.089 40.4877 237.068 40.479 237.059C40.297 236.79 40.1064 236.6 39.907 236.487C39.8897 236.478 39.868 236.474 39.842 236.474H37.97C37.9354 236.474 37.9137 236.478 37.905 236.487C37.7057 236.6 37.515 236.79 37.333 237.059L37.32 237.124ZM48.7193 241.141V235.226H50.0843V241.154C50.0843 241.44 50.015 241.687 49.8763 241.895C49.781 242.025 49.6293 242.198 49.4213 242.415C49.222 242.623 49.0573 242.762 48.9273 242.831C48.676 242.987 48.4116 243.065 48.1343 243.065H46.4833C46.1973 243.065 45.9286 242.987 45.6773 242.831C45.556 242.762 45.387 242.623 45.1703 242.415C44.9623 242.198 44.815 242.025 44.7283 241.895C44.5896 241.687 44.5203 241.44 44.5203 241.154V235.226H45.8853V241.128C45.8853 241.163 45.8896 241.184 45.8983 241.193C46.0803 241.462 46.271 241.648 46.4703 241.752L46.5353 241.765H48.0823C48.1083 241.765 48.13 241.761 48.1473 241.752C48.3466 241.648 48.533 241.462 48.7063 241.193L48.7193 241.141ZM58.4003 238.164C58.4003 238.459 58.3223 238.723 58.1663 238.957C58.1056 239.044 57.9973 239.165 57.8413 239.321C57.6853 239.468 57.5596 239.577 57.4643 239.646C57.3516 239.733 57.2389 239.793 57.1263 239.828L58.6733 243H57.1913L55.7483 239.932H54.2533V243H52.8883V235.226H56.5413C56.8879 235.226 57.1956 235.321 57.4643 235.512C57.7329 235.711 57.9669 235.95 58.1663 236.227C58.3223 236.461 58.4003 236.725 58.4003 237.02V238.164ZM57.0353 238.151V237.033C57.0353 236.99 57.0309 236.959 57.0223 236.942C56.8749 236.682 56.7363 236.543 56.6063 236.526H54.2533V238.632H56.5413C56.6019 238.632 56.6843 238.584 56.7883 238.489C56.8923 238.394 56.9703 238.298 57.0223 238.203C57.0309 238.186 57.0353 238.168 57.0353 238.151ZM72.2771 243H70.9121V237.683L69.3651 241.089H68.4681L66.9211 237.696V243H65.5561V235.226H67.1161L68.9361 239.061L70.7301 235.226H72.2771V243ZM80.0789 243H75.1909V235.226H80.0789V236.526H76.5559V238.489H79.8319V239.789H76.5559V241.7H80.0789V243ZM89.655 243H88.29V237.683L86.743 241.089H85.846L84.299 237.696V243H82.934V235.226H84.494L86.314 239.061L88.108 235.226H89.655V243ZM98.0677 241.232C98.0677 241.527 97.9941 241.787 97.8467 242.012C97.7861 242.099 97.6777 242.224 97.5217 242.389C97.3657 242.545 97.2444 242.653 97.1577 242.714C96.8891 242.905 96.5771 243 96.2217 243H92.5687V235.226H96.2217C96.5597 235.226 96.8717 235.326 97.1577 235.525C97.2444 235.586 97.3657 235.698 97.5217 235.863C97.6777 236.019 97.7861 236.14 97.8467 236.227C97.9941 236.444 98.0677 236.712 98.0677 237.033V237.995C98.0677 238.411 97.8987 238.788 97.5607 239.126C97.8987 239.464 98.0677 239.837 98.0677 240.244V241.232ZM96.6897 238.06C96.6984 238.043 96.7027 238.012 96.7027 237.969V237.046L96.6897 236.981C96.6291 236.877 96.5467 236.777 96.4427 236.682C96.3474 236.578 96.2694 236.526 96.2087 236.526H93.9337V238.489H96.2217C96.2824 238.489 96.3647 238.441 96.4687 238.346C96.5727 238.251 96.6464 238.155 96.6897 238.06ZM96.6897 241.271C96.6984 241.245 96.7027 241.215 96.7027 241.18V240.257L96.6897 240.192C96.6291 240.088 96.5467 239.988 96.4427 239.893C96.3474 239.798 96.2694 239.75 96.2087 239.75H93.9337V241.7H96.2217C96.2824 241.7 96.3647 241.652 96.4687 241.557C96.5727 241.462 96.6464 241.366 96.6897 241.271ZM105.708 243H100.82V235.226H105.708V236.526H102.185V238.489H105.461V239.789H102.185V241.7H105.708V243ZM114.075 238.164C114.075 238.459 113.997 238.723 113.841 238.957C113.78 239.044 113.672 239.165 113.516 239.321C113.36 239.468 113.234 239.577 113.139 239.646C113.026 239.733 112.913 239.793 112.801 239.828L114.348 243H112.866L111.423 239.932H109.928V243H108.563V235.226H112.216C112.562 235.226 112.87 235.321 113.139 235.512C113.407 235.711 113.641 235.95 113.841 236.227C113.997 236.461 114.075 236.725 114.075 237.02V238.164ZM112.71 238.151V237.033C112.71 236.99 112.705 236.959 112.697 236.942C112.549 236.682 112.411 236.543 112.281 236.526H109.928V238.632H112.216C112.276 238.632 112.359 238.584 112.463 238.489C112.567 238.394 112.645 238.298 112.697 238.203C112.705 238.186 112.71 238.168 112.71 238.151ZM122.877 241.154C122.877 241.457 122.808 241.704 122.669 241.895C122.582 242.025 122.435 242.198 122.227 242.415C122.019 242.623 121.85 242.762 121.72 242.831C121.443 242.987 121.174 243.065 120.914 243.065H118.652C118.089 243.065 117.538 242.705 117.001 241.986C116.949 241.917 116.871 241.782 116.767 241.583L118.054 241.154C118.227 241.397 118.418 241.596 118.626 241.752C118.643 241.761 118.674 241.765 118.717 241.765H120.849L120.927 241.752C121.022 241.7 121.144 241.6 121.291 241.453C121.438 241.306 121.512 241.206 121.512 241.154V240.387C121.512 240.257 121.46 240.183 121.356 240.166L117.976 239.204C117.655 239.117 117.404 238.94 117.222 238.671C117.049 238.402 116.962 238.108 116.962 237.787V237.085C116.962 236.782 117.027 236.535 117.157 236.344C117.244 236.223 117.391 236.058 117.599 235.85C117.816 235.633 117.989 235.486 118.119 235.408C118.396 235.252 118.665 235.174 118.925 235.174H120.849C121.404 235.174 121.954 235.534 122.5 236.253C122.587 236.374 122.673 236.526 122.76 236.708L121.447 237.085C121.248 236.799 121.057 236.6 120.875 236.487C120.866 236.478 120.84 236.474 120.797 236.474H118.964L118.886 236.487C118.782 236.539 118.661 236.634 118.522 236.773C118.392 236.912 118.327 237.007 118.327 237.059V237.709C118.327 237.839 118.375 237.913 118.47 237.93L121.863 238.918C122.175 239.005 122.422 239.187 122.604 239.464C122.786 239.733 122.877 240.023 122.877 240.335V241.154ZM135.196 243H133.753L131.062 237.839V243H129.697V235.226H131.166L133.831 240.452V235.226H135.196V243ZM143.001 243H138.113V235.226H143.001V236.526H139.478V238.489H142.754V239.789H139.478V241.7H143.001V243ZM151.369 241.492C151.282 241.691 151.191 241.856 151.096 241.986C150.558 242.705 150.008 243.065 149.445 243.065H147.82C147.534 243.065 147.265 242.987 147.014 242.831C146.884 242.753 146.715 242.61 146.507 242.402C146.299 242.194 146.151 242.029 146.065 241.908C145.926 241.7 145.857 241.453 145.857 241.167V237.072C145.857 236.795 145.926 236.552 146.065 236.344C146.151 236.214 146.299 236.045 146.507 235.837C146.723 235.62 146.892 235.477 147.014 235.408C147.291 235.252 147.56 235.174 147.82 235.174H149.445C149.999 235.174 150.55 235.534 151.096 236.253C151.148 236.322 151.239 236.474 151.369 236.708L150.043 237.085C149.783 236.764 149.588 236.565 149.458 236.487C149.449 236.478 149.432 236.474 149.406 236.474H147.872L147.82 236.487C147.594 236.608 147.399 236.799 147.235 237.059C147.226 237.076 147.222 237.124 147.222 237.202V241.154C147.222 241.223 147.291 241.327 147.43 241.466C147.577 241.596 147.707 241.691 147.82 241.752C147.828 241.761 147.859 241.765 147.911 241.765H149.393C149.419 241.765 149.44 241.761 149.458 241.752C149.536 241.717 149.622 241.648 149.718 241.544C149.822 241.44 149.904 241.345 149.965 241.258L150.043 241.141L151.369 241.492ZM159.958 243H158.281L155.59 239.75H155.447V243H154.082V235.226H155.447V238.463H155.577C155.889 238.099 156.344 237.553 156.942 236.825C157.54 236.097 157.982 235.564 158.268 235.226H159.945L156.708 239.1C156.847 239.265 157.328 239.845 158.151 240.842C158.983 241.839 159.585 242.558 159.958 243ZM166.94 243H162.13V235.226H163.495V241.7H166.94V243ZM175.539 243H174.083L173.511 241.349H170.56L169.988 243H168.532L171.249 235.226H172.835L175.539 243ZM173.082 240.049L172.042 236.981L170.989 240.049H173.082ZM183.103 241.492C183.016 241.691 182.925 241.856 182.83 241.986C182.292 242.705 181.742 243.065 181.179 243.065H179.554C179.268 243.065 178.999 242.987 178.748 242.831C178.618 242.753 178.449 242.61 178.241 242.402C178.033 242.194 177.885 242.029 177.799 241.908C177.66 241.7 177.591 241.453 177.591 241.167V237.072C177.591 236.795 177.66 236.552 177.799 236.344C177.885 236.214 178.033 236.045 178.241 235.837C178.457 235.62 178.626 235.477 178.748 235.408C179.025 235.252 179.294 235.174 179.554 235.174H181.179C181.733 235.174 182.284 235.534 182.83 236.253C182.882 236.322 182.973 236.474 183.103 236.708L181.777 237.085C181.517 236.764 181.322 236.565 181.192 236.487C181.183 236.478 181.166 236.474 181.14 236.474H179.606L179.554 236.487C179.328 236.608 179.133 236.799 178.969 237.059C178.96 237.076 178.956 237.124 178.956 237.202V241.154C178.956 241.223 179.025 241.327 179.164 241.466C179.311 241.596 179.441 241.691 179.554 241.752C179.562 241.761 179.593 241.765 179.645 241.765H181.127C181.153 241.765 181.174 241.761 181.192 241.752C181.27 241.717 181.356 241.648 181.452 241.544C181.556 241.44 181.638 241.345 181.699 241.258L181.777 241.141L183.103 241.492ZM190.704 243H185.816V235.226H190.704V236.526H187.181V238.489H190.457V239.789H187.181V241.7H190.704V243ZM32.0089 252.526H29.9029V259H28.5379V252.526H26.4319V251.226H32.0089V252.526ZM40.0027 259H38.6377V255.789H35.8037V259H34.4387V251.226H35.8037V254.489H38.6377V251.226H40.0027V259ZM49.0411 259H47.5851L47.0131 257.349H44.0621L43.4901 259H42.0341L44.7511 251.226H46.3371L49.0411 259ZM46.5841 256.049L45.5441 252.981L44.4911 256.049H46.5841ZM55.5429 252.526H53.4369V259H52.0719V252.526H49.9659V251.226H55.5429V252.526ZM67.5843 257.492C67.4976 257.691 67.4066 257.856 67.3113 257.986C66.774 258.705 66.2236 259.065 65.6603 259.065H64.0353C63.7493 259.065 63.4806 258.987 63.2293 258.831C63.0993 258.753 62.9303 258.61 62.7223 258.402C62.5143 258.194 62.367 258.029 62.2803 257.908C62.1416 257.7 62.0723 257.453 62.0723 257.167V253.072C62.0723 252.795 62.1416 252.552 62.2803 252.344C62.367 252.214 62.5143 252.045 62.7223 251.837C62.939 251.62 63.108 251.477 63.2293 251.408C63.5066 251.252 63.7753 251.174 64.0353 251.174H65.6603C66.215 251.174 66.7653 251.534 67.3113 252.253C67.3633 252.322 67.4543 252.474 67.5843 252.708L66.2583 253.085C65.9983 252.764 65.8033 252.565 65.6733 252.487C65.6646 252.478 65.6473 252.474 65.6213 252.474H64.0873L64.0353 252.487C63.81 252.608 63.615 252.799 63.4503 253.059C63.4416 253.076 63.4373 253.124 63.4373 253.202V257.154C63.4373 257.223 63.5066 257.327 63.6453 257.466C63.7926 257.596 63.9226 257.691 64.0353 257.752C64.044 257.761 64.0743 257.765 64.1263 257.765H65.6083C65.6343 257.765 65.656 257.761 65.6733 257.752C65.7513 257.717 65.838 257.648 65.9333 257.544C66.0373 257.44 66.1196 257.345 66.1803 257.258L66.2583 257.141L67.5843 257.492ZM76.4208 259H74.9648L74.3928 257.349H71.4418L70.8698 259H69.4138L72.1308 251.226H73.7168L76.4208 259ZM73.9638 256.049L72.9238 252.981L71.8708 256.049H73.9638ZM83.9716 259H82.5286L79.8376 253.839V259H78.4726V251.226H79.9416L82.6066 256.452V251.226H83.9716V259ZM96.4872 257.232C96.4872 257.527 96.4135 257.787 96.2662 258.012C96.2055 258.099 96.0972 258.224 95.9412 258.389C95.7852 258.545 95.6638 258.653 95.5772 258.714C95.3085 258.905 94.9965 259 94.6412 259H90.9882V251.226H94.6412C94.9792 251.226 95.2912 251.326 95.5772 251.525C95.6638 251.586 95.7852 251.698 95.9412 251.863C96.0972 252.019 96.2055 252.14 96.2662 252.227C96.4135 252.444 96.4872 252.712 96.4872 253.033V253.995C96.4872 254.411 96.3182 254.788 95.9802 255.126C96.3182 255.464 96.4872 255.837 96.4872 256.244V257.232ZM95.1092 254.06C95.1178 254.043 95.1222 254.012 95.1222 253.969V253.046L95.1092 252.981C95.0485 252.877 94.9662 252.777 94.8622 252.682C94.7668 252.578 94.6888 252.526 94.6282 252.526H92.3532V254.489H94.6412C94.7018 254.489 94.7842 254.441 94.8882 254.346C94.9922 254.251 95.0658 254.155 95.1092 254.06ZM95.1092 257.271C95.1178 257.245 95.1222 257.215 95.1222 257.18V256.257L95.1092 256.192C95.0485 256.088 94.9662 255.988 94.8622 255.893C94.7668 255.798 94.6888 255.75 94.6282 255.75H92.3532V257.7H94.6412C94.7018 257.7 94.7842 257.652 94.8882 257.557C94.9922 257.462 95.0658 257.366 95.1092 257.271ZM104.127 259H99.2391V251.226H104.127V252.526H100.604V254.489H103.88V255.789H100.604V257.7H104.127V259ZM119.636 251.226L117.829 259H116.282L115.034 253.787L113.773 259H112.213L110.432 251.226H111.836L113.006 256.686L114.293 251.226H115.749L117.036 256.686L118.193 251.226H119.636ZM127.634 257.154C127.634 257.44 127.565 257.687 127.426 257.895C127.322 258.034 127.166 258.207 126.958 258.415C126.759 258.623 126.599 258.762 126.477 258.831C126.226 258.987 125.957 259.065 125.671 259.065H123.695C123.409 259.065 123.141 258.987 122.889 258.831C122.768 258.762 122.599 258.623 122.382 258.415C122.174 258.198 122.027 258.025 121.94 257.895C121.802 257.687 121.732 257.44 121.732 257.154V253.085C121.732 252.799 121.802 252.552 121.94 252.344C122.027 252.214 122.174 252.045 122.382 251.837C122.599 251.62 122.768 251.477 122.889 251.408C123.141 251.252 123.409 251.174 123.695 251.174H125.671C125.957 251.174 126.226 251.252 126.477 251.408C126.599 251.477 126.759 251.616 126.958 251.824C127.166 252.032 127.322 252.205 127.426 252.344C127.565 252.552 127.634 252.799 127.634 253.085V257.154ZM123.097 253.124V257.141C123.097 257.167 123.102 257.184 123.11 257.193C123.284 257.453 123.474 257.639 123.682 257.752C123.7 257.761 123.721 257.765 123.747 257.765H125.619C125.645 257.765 125.667 257.761 125.684 257.752C125.892 257.639 126.083 257.453 126.256 257.193L126.269 257.141V253.124C126.269 253.089 126.265 253.068 126.256 253.059C126.074 252.79 125.884 252.6 125.684 252.487C125.667 252.478 125.645 252.474 125.619 252.474H123.747C123.713 252.474 123.691 252.478 123.682 252.487C123.483 252.6 123.292 252.79 123.11 253.059L123.097 253.124ZM135.927 254.164C135.927 254.459 135.849 254.723 135.693 254.957C135.632 255.044 135.524 255.165 135.368 255.321C135.212 255.468 135.086 255.577 134.991 255.646C134.878 255.733 134.765 255.793 134.653 255.828L136.2 259H134.718L133.275 255.932H131.78V259H130.415V251.226H134.068C134.414 251.226 134.722 251.321 134.991 251.512C135.259 251.711 135.493 251.95 135.693 252.227C135.849 252.461 135.927 252.725 135.927 253.02V254.164ZM134.562 254.151V253.033C134.562 252.99 134.557 252.959 134.549 252.942C134.401 252.682 134.263 252.543 134.133 252.526H131.78V254.632H134.068C134.128 254.632 134.211 254.584 134.315 254.489C134.419 254.394 134.497 254.298 134.549 254.203C134.557 254.186 134.562 254.168 134.562 254.151ZM144.482 259H143.039L140.348 253.839V259H138.983V251.226H140.452L143.117 256.452V251.226H144.482V259ZM152.864 259H151.499V251.226H152.864V259ZM161.275 259H159.832L157.141 253.839V259H155.776V251.226H157.245L159.91 256.452V251.226H161.275V259ZM169.656 253.085V257.154C169.656 257.223 169.726 257.327 169.864 257.466C170.012 257.596 170.142 257.691 170.254 257.752H170.267C170.285 257.761 170.302 257.765 170.319 257.765H172.087L172.152 257.752C172.256 257.691 172.382 257.587 172.529 257.44C172.677 257.293 172.75 257.184 172.75 257.115V255.854H171.073V254.554H174.115V257.18C174.176 257.752 174.258 258.359 174.362 259H173.023L172.958 258.688C172.603 258.939 172.334 259.065 172.152 259.065H170.254C169.968 259.065 169.7 258.987 169.448 258.831C169.318 258.753 169.149 258.614 168.941 258.415C168.733 258.207 168.586 258.042 168.499 257.921C168.361 257.713 168.291 257.462 168.291 257.167V253.059C168.291 252.773 168.361 252.526 168.499 252.318C168.586 252.188 168.733 252.019 168.941 251.811C169.158 251.594 169.327 251.451 169.448 251.382C169.682 251.235 169.951 251.161 170.254 251.161H172.152C172.75 251.161 173.301 251.521 173.803 252.24C173.933 252.422 174.024 252.574 174.076 252.695L172.763 253.072C172.573 252.812 172.369 252.613 172.152 252.474C172.144 252.465 172.122 252.461 172.087 252.461H170.319L170.254 252.474C170.02 252.604 169.825 252.79 169.669 253.033L169.656 253.085ZM183.224 259H181.768L181.196 257.349H178.245L177.673 259H176.217L178.934 251.226H180.52L183.224 259ZM180.767 256.049L179.727 252.981L178.674 256.049H180.767ZM191.997 259H190.632V253.683L189.085 257.089H188.188L186.641 253.696V259H185.276V251.226H186.836L188.656 255.061L190.45 251.226H191.997V259ZM199.798 259H194.91V251.226H199.798V252.526H196.275V254.489H199.551V255.789H196.275V257.7H199.798V259ZM64.8159 273.232C64.8159 273.527 64.7422 273.787 64.5949 274.012C64.5342 274.099 64.4259 274.224 64.2699 274.389C64.1139 274.545 63.9926 274.653 63.9059 274.714C63.6372 274.905 63.3252 275 62.9699 275H59.3169V267.226H62.9699C63.3079 267.226 63.6199 267.326 63.9059 267.525C63.9926 267.586 64.1139 267.698 64.2699 267.863C64.4259 268.019 64.5342 268.14 64.5949 268.227C64.7422 268.444 64.8159 268.712 64.8159 269.033V269.995C64.8159 270.411 64.6469 270.788 64.3089 271.126C64.6469 271.464 64.8159 271.837 64.8159 272.244V273.232ZM63.4379 270.06C63.4466 270.043 63.4509 270.012 63.4509 269.969V269.046L63.4379 268.981C63.3772 268.877 63.2949 268.777 63.1909 268.682C63.0956 268.578 63.0176 268.526 62.9569 268.526H60.6819V270.489H62.9699C63.0306 270.489 63.1129 270.441 63.2169 270.346C63.3209 270.251 63.3946 270.155 63.4379 270.06ZM63.4379 273.271C63.4466 273.245 63.4509 273.215 63.4509 273.18V272.257L63.4379 272.192C63.3772 272.088 63.2949 271.988 63.1909 271.893C63.0956 271.798 63.0176 271.75 62.9569 271.75H60.6819V273.7H62.9699C63.0306 273.7 63.1129 273.652 63.2169 273.557C63.3209 273.462 63.3946 273.366 63.4379 273.271ZM73.2618 267.226L70.6878 271.607V275H69.3228V271.607L66.7748 267.226H68.2828L70.0118 270.177L71.7408 267.226H73.2618ZM85.3763 273.154C85.3763 273.44 85.307 273.687 85.1683 273.895C85.0643 274.034 84.9083 274.207 84.7003 274.415C84.501 274.623 84.3407 274.762 84.2193 274.831C83.968 274.987 83.6993 275.065 83.4133 275.065H81.4373C81.1513 275.065 80.8826 274.987 80.6313 274.831C80.51 274.762 80.341 274.623 80.1243 274.415C79.9163 274.198 79.769 274.025 79.6823 273.895C79.5436 273.687 79.4743 273.44 79.4743 273.154V269.085C79.4743 268.799 79.5436 268.552 79.6823 268.344C79.769 268.214 79.9163 268.045 80.1243 267.837C80.341 267.62 80.51 267.477 80.6313 267.408C80.8826 267.252 81.1513 267.174 81.4373 267.174H83.4133C83.6993 267.174 83.968 267.252 84.2193 267.408C84.3407 267.477 84.501 267.616 84.7003 267.824C84.9083 268.032 85.0643 268.205 85.1683 268.344C85.307 268.552 85.3763 268.799 85.3763 269.085V273.154ZM80.8393 269.124V273.141C80.8393 273.167 80.8436 273.184 80.8523 273.193C81.0256 273.453 81.2163 273.639 81.4243 273.752C81.4417 273.761 81.4633 273.765 81.4893 273.765H83.3613C83.3873 273.765 83.409 273.761 83.4263 273.752C83.6343 273.639 83.825 273.453 83.9983 273.193L84.0113 273.141V269.124C84.0113 269.089 84.007 269.068 83.9983 269.059C83.8163 268.79 83.6256 268.6 83.4263 268.487C83.409 268.478 83.3873 268.474 83.3613 268.474H81.4893C81.4546 268.474 81.433 268.478 81.4243 268.487C81.225 268.6 81.0343 268.79 80.8523 269.059L80.8393 269.124ZM93.6556 275H92.2126L89.5216 269.839V275H88.1566V267.226H89.6256L92.2906 272.452V267.226H93.6556V275ZM101.383 275H96.5726V267.226H97.9376V273.7H101.383V275ZM108.626 267.226L106.052 271.607V275H104.687V271.607L102.139 267.226H103.647L105.376 270.177L107.105 267.226H108.626ZM121.546 275H120.181V269.683L118.634 273.089H117.737L116.19 269.696V275H114.825V267.226H116.385L118.205 271.061L119.999 267.226H121.546V275ZM129.348 275H124.46V267.226H129.348V268.526H125.825V270.489H129.101V271.789H125.825V273.7H129.348V275ZM138.924 275H137.559V269.683L136.012 273.089H135.115L133.568 269.696V275H132.203V267.226H133.763L135.583 271.061L137.377 267.226H138.924V275ZM147.337 273.232C147.337 273.527 147.263 273.787 147.116 274.012C147.055 274.099 146.947 274.224 146.791 274.389C146.635 274.545 146.514 274.653 146.427 274.714C146.158 274.905 145.846 275 145.491 275H141.838V267.226H145.491C145.829 267.226 146.141 267.326 146.427 267.525C146.514 267.586 146.635 267.698 146.791 267.863C146.947 268.019 147.055 268.14 147.116 268.227C147.263 268.444 147.337 268.712 147.337 269.033V269.995C147.337 270.411 147.168 270.788 146.83 271.126C147.168 271.464 147.337 271.837 147.337 272.244V273.232ZM145.959 270.06C145.968 270.043 145.972 270.012 145.972 269.969V269.046L145.959 268.981C145.898 268.877 145.816 268.777 145.712 268.682C145.617 268.578 145.539 268.526 145.478 268.526H143.203V270.489H145.491C145.552 270.489 145.634 270.441 145.738 270.346C145.842 270.251 145.916 270.155 145.959 270.06ZM145.959 273.271C145.968 273.245 145.972 273.215 145.972 273.18V272.257L145.959 272.192C145.898 272.088 145.816 271.988 145.712 271.893C145.617 271.798 145.539 271.75 145.478 271.75H143.203V273.7H145.491C145.552 273.7 145.634 273.652 145.738 273.557C145.842 273.462 145.916 273.366 145.959 273.271ZM154.977 275H150.089V267.226H154.977V268.526H151.454V270.489H154.73V271.789H151.454V273.7H154.977V275ZM163.344 270.164C163.344 270.459 163.266 270.723 163.11 270.957C163.049 271.044 162.941 271.165 162.785 271.321C162.629 271.468 162.503 271.577 162.408 271.646C162.295 271.733 162.183 271.793 162.07 271.828L163.617 275H162.135L160.692 271.932H159.197V275H157.832V267.226H161.485C161.832 267.226 162.139 267.321 162.408 267.512C162.677 267.711 162.911 267.95 163.11 268.227C163.266 268.461 163.344 268.725 163.344 269.02V270.164ZM161.979 270.151V269.033C161.979 268.99 161.975 268.959 161.966 268.942C161.819 268.682 161.68 268.543 161.55 268.526H159.197V270.632H161.485C161.546 270.632 161.628 270.584 161.732 270.489C161.836 270.394 161.914 270.298 161.966 270.203C161.975 270.186 161.979 270.168 161.979 270.151ZM172.146 273.154C172.146 273.457 172.077 273.704 171.938 273.895C171.852 274.025 171.704 274.198 171.496 274.415C171.288 274.623 171.119 274.762 170.989 274.831C170.712 274.987 170.443 275.065 170.183 275.065H167.921C167.358 275.065 166.808 274.705 166.27 273.986C166.218 273.917 166.14 273.782 166.036 273.583L167.323 273.154C167.497 273.397 167.687 273.596 167.895 273.752C167.913 273.761 167.943 273.765 167.986 273.765H170.118L170.196 273.752C170.292 273.7 170.413 273.6 170.56 273.453C170.708 273.306 170.781 273.206 170.781 273.154V272.387C170.781 272.257 170.729 272.183 170.625 272.166L167.245 271.204C166.925 271.117 166.673 270.94 166.491 270.671C166.318 270.402 166.231 270.108 166.231 269.787V269.085C166.231 268.782 166.296 268.535 166.426 268.344C166.513 268.223 166.66 268.058 166.868 267.85C167.085 267.633 167.258 267.486 167.388 267.408C167.666 267.252 167.934 267.174 168.194 267.174H170.118C170.673 267.174 171.223 267.534 171.769 268.253C171.856 268.374 171.943 268.526 172.029 268.708L170.716 269.085C170.517 268.799 170.326 268.6 170.144 268.487C170.136 268.478 170.11 268.474 170.066 268.474H168.233L168.155 268.487C168.051 268.539 167.93 268.634 167.791 268.773C167.661 268.912 167.596 269.007 167.596 269.059V269.709C167.596 269.839 167.644 269.913 167.739 269.93L171.132 270.918C171.444 271.005 171.691 271.187 171.873 271.464C172.055 271.733 172.146 272.023 172.146 272.335V273.154Z" fill="white"/>
<g filter="url(#filter0_f_1_848)">
<path d="M69.1019 51.3741C64.7865 51.2803 60.5326 52.9561 57.6058 56.9961C51.9544 64.8126 50.6712 74.7032 52.3119 84.8692C53.9554 95.0352 58.4876 105.553 64.7777 115.162C75.6292 131.744 91.6546 145.777 108.09 149.352V143.873C94.0863 140.211 79.2035 127.555 69.1898 112.291C63.2367 103.18 59.0062 93.2481 57.5179 84.0196C56.0296 74.8204 57.2455 66.4971 61.8773 60.0899C63.6234 57.6817 65.3958 56.7266 67.7162 56.6094C68.4925 56.5713 69.3275 56.6094 70.2415 56.7501C73.9007 57.2481 78.5882 59.337 83.6273 62.0293C92.9144 66.9864 103.198 74.0293 113.364 75.1133V69.7549C105.395 68.545 95.4632 62.3721 86.1175 57.377C80.932 54.5967 75.8929 52.1915 70.9417 51.5206C70.3265 51.4385 69.7201 51.3887 69.1019 51.3741ZM162.875 51.3741C162.26 51.3741 161.645 51.4356 161.03 51.5206C156.108 52.1915 151.069 54.5967 145.883 57.377C136.537 62.3721 126.606 68.545 118.637 69.7549V75.084C128.803 74.0001 139.086 66.9834 148.373 62.0264C153.412 59.334 158.1 57.2452 161.762 56.7471C165.424 56.2491 167.797 56.876 170.112 60.0899C174.741 66.4971 175.971 74.8204 174.477 84.0196C172.983 93.2481 168.764 103.18 162.817 112.291C152.797 127.555 137.914 140.211 123.91 143.873V149.352C140.346 145.777 156.371 131.744 167.211 115.162C173.51 105.553 178.051 95.0352 179.692 84.8692C181.332 74.7032 180.043 64.8126 174.389 56.9991C171.459 52.9561 167.211 51.2833 162.875 51.3741ZM113.364 144.84V154.332H118.637V144.84C117.758 144.898 116.879 144.957 116 144.957C115.121 144.957 114.243 144.898 113.364 144.84ZM109.76 159.606L106.684 161.656L116 167.867L125.317 161.656L122.241 159.606H109.76ZM104.575 166.578V175.484L111.254 171.031L104.575 166.578ZM127.426 166.578L120.746 171.031L127.426 175.484V166.578ZM116 174.195L106.684 180.406L116 186.617L125.317 180.406L116 174.195Z" fill="#D9D9D9"/>
</g>
<path d="M69.1019 51.3741C64.7865 51.2803 60.5326 52.9561 57.6058 56.9961C51.9544 64.8126 50.6712 74.7032 52.3119 84.8692C53.9554 95.0352 58.4876 105.553 64.7777 115.162C75.6292 131.744 91.6546 145.777 108.09 149.352V143.873C94.0863 140.211 79.2035 127.555 69.1898 112.291C63.2367 103.18 59.0062 93.2481 57.5179 84.0196C56.0296 74.8204 57.2455 66.4971 61.8773 60.0899C63.6234 57.6817 65.3958 56.7266 67.7162 56.6094C68.4925 56.5713 69.3275 56.6094 70.2415 56.7501C73.9007 57.2481 78.5882 59.337 83.6273 62.0293C92.9144 66.9864 103.198 74.0293 113.364 75.1133V69.7549C105.395 68.545 95.4632 62.3721 86.1175 57.377C80.932 54.5967 75.8929 52.1915 70.9417 51.5206C70.3265 51.4385 69.7201 51.3887 69.1019 51.3741ZM162.875 51.3741C162.26 51.3741 161.645 51.4356 161.03 51.5206C156.108 52.1915 151.069 54.5967 145.883 57.377C136.537 62.3721 126.606 68.545 118.637 69.7549V75.084C128.803 74.0001 139.086 66.9834 148.373 62.0264C153.412 59.334 158.1 57.2452 161.762 56.7471C165.424 56.2491 167.797 56.876 170.112 60.0899C174.741 66.4971 175.971 74.8204 174.477 84.0196C172.983 93.2481 168.764 103.18 162.817 112.291C152.797 127.555 137.914 140.211 123.91 143.873V149.352C140.346 145.777 156.371 131.744 167.211 115.162C173.51 105.553 178.051 95.0352 179.692 84.8692C181.332 74.7032 180.043 64.8126 174.389 56.9991C171.459 52.9561 167.211 51.2833 162.875 51.3741ZM113.364 144.84V154.332H118.637V144.84C117.758 144.898 116.879 144.957 116 144.957C115.121 144.957 114.243 144.898 113.364 144.84ZM109.76 159.606L106.684 161.656L116 167.867L125.317 161.656L122.241 159.606H109.76ZM104.575 166.578V175.484L111.254 171.031L104.575 166.578ZM127.426 166.578L120.746 171.031L127.426 175.484V166.578ZM116 174.195L106.684 180.406L116 186.617L125.317 180.406L116 174.195Z" fill="white"/>
<defs>
<filter id="filter0_f_1_848" x="48.3504" y="48.0704" width="135.301" height="141.847" filterUnits="userSpaceOnUse" color-interpolation-filters="sRGB">
<feFlood flood-opacity="0" result="BackgroundImageFix"/>
<feBlend mode="normal" in="SourceGraphic" in2="BackgroundImageFix" result="shape"/>
<feGaussianBlur stdDeviation="1.65" result="effect1_foregroundBlur_1_848"/>
</filter>
<linearGradient id="paint0_linear_1_848" x1="117" y1="194.761" x2="117" y2="392" gradientUnits="userSpaceOnUse">
<stop stop-color="#D9D9D9" stop-opacity="0"/>
<stop offset="1" stop-color="#FFEA31"/>
</linearGradient>
</defs>
</svg>
